<?xml version="1.0" encoding="UTF-8" standalone="no"?>
<!-- Created with Inkscape (http://www.inkscape.org/) -->

<svg
   width="210mm"
   height="297mm"
   viewBox="0 0 210 297"
   version="1.1"
   id="svg5"
   inkscape:version="1.1 (c68e22c387, 2021-05-23)"
   sodipodi:docname="graph.svg"
   xmlns:inkscape="http://www.inkscape.org/namespaces/inkscape"
   xmlns:sodipodi="http://sodipodi.sourceforge.net/DTD/sodipodi-0.dtd"
   xmlns="http://www.w3.org/2000/svg"
   xmlns:svg="http://www.w3.org/2000/svg">
  <sodipodi:namedview
     id="namedview7"
     pagecolor="#ffffff"
     bordercolor="#666666"
     borderopacity="1.0"
     inkscape:pageshadow="2"
     inkscape:pageopacity="0.0"
     inkscape:pagecheckerboard="0"
     inkscape:document-units="mm"
     showgrid="false"
     inkscape:snap-grids="true"
     inkscape:zoom="1.0230034"
     inkscape:cx="27.859146"
     inkscape:cy="402.24697"
     inkscape:window-width="1920"
     inkscape:window-height="1001"
     inkscape:window-x="-9"
     inkscape:window-y="-9"
     inkscape:window-maximized="1"
     inkscape:current-layer="layer1" />
  <defs
     id="defs2" />
  <g
     inkscape:label="Layer 1"
     inkscape:groupmode="layer"
     id="layer1">
    <path
       style="fill:none;stroke:#000000;stroke-width:0.264583px;stroke-linecap:butt;stroke-linejoin:miter;stroke-opacity:1"
       d="M 109.3633,50.475369 C 110.82635,183.6133 110.82635,183.6133 110.82635,183.6133"
       id="path352" />
    <path
       style="fill:none;stroke:#000000;stroke-width:0.264583px;stroke-linecap:butt;stroke-linejoin:miter;stroke-opacity:1"
       d="m 48.64655,114.84975 c 137.16133,-0.36576 137.16133,-0.36576 137.16133,-0.36576"
       id="path354" />
    <path
       style="fill:none;stroke:#000000;stroke-width:0.264583px;stroke-linecap:butt;stroke-linejoin:miter;stroke-opacity:1"
       d="m 109.3633,79.004926 c 47.54926,-0.731528 47.54926,-0.731528 47.54926,-0.731528 0,36.576352 0,36.576352 0,36.576352"
       id="path356" />
    <text
       xml:space="preserve"
       style="font-style:normal;font-weight:normal;font-size:5.64444px;line-height:1.25;font-family:sans-serif;fill:#000000;fill-opacity:1;stroke:none;stroke-width:0.264583"
       x="109.3633"
       y="76.444572"
       id="text4298"><tspan
         sodipodi:role="line"
         id="tspan4296"
         style="font-size:5.64444px;stroke-width:0.264583"
         x="109.3633"
         y="76.444572">(0,1,0)</tspan></text>
    <text
       xml:space="preserve"
       style="font-size:5.64444444px;line-height:1.25;font-family:sans-serif;stroke-width:0.264583"
       x="156.91257"
       y="78.273392"
       id="text11776"><tspan
         sodipodi:role="line"
         id="tspan11774"
         style="stroke-width:0.264583;font-size:5.64444444px"
         x="156.91257"
         y="78.273392">(0,1,1)</tspan></text>
    <text
       xml:space="preserve"
       style="font-size:6.35px;line-height:1.25;font-family:sans-serif;stroke-width:0.264583"
       x="157.64409"
       y="112.2894"
       id="text15300"><tspan
         sodipodi:role="line"
         id="tspan15298"
         style="stroke-width:0.264583"
         x="157.64409"
         y="112.2894">(0,0,1)</tspan></text>
    <text
       xml:space="preserve"
       style="font-size:6.35px;line-height:1.25;font-family:sans-serif;stroke-width:0.264583"
       x="110.82635"
       y="120.70197"
       id="text17350"><tspan
         sodipodi:role="line"
         id="tspan17348"
         style="stroke-width:0.264583"
         x="110.82635"
         y="120.70197">(0,0,0)</tspan></text>
    <path
       sodipodi:type="spiral"
       style="fill:none;fill-rule:evenodd;stroke:#000000"
       id="path27134"
       sodipodi:cx="504.5809"
       sodipodi:cy="360.80991"
       sodipodi:expansion="1"
       sodipodi:revolution="3"
       sodipodi:radius="57.681602"
       sodipodi:argument="-18.081106"
       sodipodi:t0="0"
       d="m 504.5809,360.80991 c 2.07936,2.01004 -1.68362,3.79462 -3.34083,3.45603 -4.49094,-0.91755 -5.30731,-6.63612 -3.57124,-10.13769 3.10542,-6.26349 11.43051,-7.1322 16.93456,-3.68645 8.07742,5.05676 9.00985,16.28945 3.80166,23.73142 -6.9417,9.91898 -21.17126,10.90991 -30.52829,3.91687 -11.77487,-8.80003 -12.82154,-26.06395 -4.03208,-37.32516 10.64522,-13.63884 30.96276,-14.73987 44.12203,-4.14728 15.50774,12.483 16.6624,35.86538 4.26248,50.91889 -14.3162,17.37988 -40.77055,18.58775 -57.71575,4.37769 -19.25422,-16.14637 -20.51506,-45.67751 -4.4929,-64.51262 17.97444,-21.13014 50.58578,-22.44379 71.30948,-4.60811 23.00724,19.80099 24.37359,55.49504 4.72332,78.10636"
       transform="scale(0.26458333)" />
    <path
       style="fill:#ffffff;fill-rule:evenodd;stroke-width:0.264583"
       id="path27604"
       d="m 135.10224,89.859362 c -1.50933,-0.342622 -2.98854,-0.798065 -4.50264,-1.122127 -2.01105,-0.306877 -2.89137,0.760558 -4.87421,2.18163 -0.0555,0.03977 -0.0472,0.845524 -0.0475,0.882314 0.0169,1.064707 0.26483,2.103533 0.40338,3.155939 0.10757,1.038929 0.30458,2.06615 0.5624,3.077411 0.21733,0.700686 0.60525,1.310699 1.04763,1.887845 0.48499,0.634896 1.00553,1.230926 1.6112,1.753476 0.53773,0.55111 1.10416,1.0101 1.82386,1.29232 0.70004,0.22354 1.43867,0.23857 2.16658,0.2527 0.64057,0.0309 1.27541,-0.0802 1.87214,-0.30987 1.63946,-0.87747 3.6918,-1.54693 4.56344,-3.30969 0.31684,-0.737471 -0.0897,-1.385194 -0.57882,-1.929654 -0.46732,-0.492347 -0.98115,-0.941356 -1.54167,-1.324592 -0.50679,-0.421158 -1.04747,-0.789569 -1.6012,-1.145928 -0.66282,-0.409319 -1.32211,-0.824125 -1.94202,-1.297144 -0.83128,-0.56669 -1.59484,-1.218081 -2.33894,-1.892927 -0.63687,-0.57961 -1.34124,-1.111036 -1.88945,-1.77922 -0.091,-0.160491 -0.43043,-0.451789 -0.34045,-0.688104 0.0363,-0.09535 0.37374,-0.160065 0.28702,-0.106315 -1.05199,0.652047 -2.12943,1.262102 -3.19415,1.893152 1.84493,-0.44949 3.88601,-0.956554 5.04885,-2.667873 0.32814,-0.252839 0.36262,-0.696407 0.6173,-0.997088 0.0551,-0.06507 0.12682,-0.114025 0.19023,-0.17104 0.0566,-0.06866 0.1132,-0.137321 0.1698,-0.205983 1.14358,-0.893072 0.41833,-0.313087 -2.91562,1.696733 -0.10068,0.06069 0.20681,-0.11203 0.31259,-0.163343 0.3592,-0.174255 0.71683,-0.288208 1.10174,-0.390311 0.8188,-0.157813 1.65788,-0.22946 2.49101,-0.190502 0.60875,0.08015 1.2592,0.237132 1.76462,0.601032 0.39318,0.332359 0.74122,0.719934 1.07888,1.10839 0.38061,0.512432 0.792,1.000305 1.18253,1.506138 0.52267,0.585653 0.8401,1.305698 1.19599,1.99563 0.28228,0.651635 0.52608,1.324817 0.74232,2.002256 0.21232,0.5309 0.49373,1.02966 0.70907,1.55824 0.26603,0.494744 0.49824,1.001429 0.78803,1.483767 0.34645,0.562621 0.44614,1.205479 0.50899,1.850676 0.10927,0.72562 -0.0142,1.42301 -0.13514,2.13524 -0.20135,0.8541 -0.59956,1.61251 -1.09601,2.32867 -0.63822,1.04336 -1.46307,1.93393 -2.28118,2.83165 -1.02448,0.92823 -3.20847,2.1251 2.40291,-1.28057 0.0904,-0.0548 -0.19143,0.0926 -0.29351,0.12 -0.24931,0.067 -0.25809,0.0247 -0.48785,-0.059 -0.47494,-0.44652 -0.77454,-1.06679 -0.96004,-1.6858 -0.15864,-0.67515 -0.1618,-1.37262 -0.17037,-2.0623 0.10948,-1.03729 -0.44762,-1.91383 -0.81487,-2.84539 -0.559,-1.314098 -0.80132,-2.706552 -0.93306,-4.118504 -0.13178,-1.177676 -0.0142,-2.36977 -0.14074,-3.545337 -0.18455,-1.004552 -0.82857,-1.794563 -1.43605,-2.579854 -0.43919,-0.568505 -1.08243,-0.884801 -1.69691,-1.224135 -0.27628,-0.191386 -1.33663,-0.77728 -1.23939,-1.153554 1.3999,0.0019 0.0942,-0.02492 -3.06294,1.958903 -0.0695,0.04366 0.14857,-0.07691 0.22986,-0.08811 0.29093,-0.04008 0.5961,0.109173 0.85171,0.221128 0.58993,0.332145 1.21387,0.592363 1.82836,0.87262 0.59991,0.306814 1.25582,0.472543 1.88356,0.710877 1.09283,0.560076 1.87413,1.553186 2.62928,2.492211 0.77952,1.106665 1.38152,2.306188 1.88212,3.559596 0.33727,0.849336 0.46382,1.7467 0.51453,2.652263 0.0237,0.662716 -0.19346,1.301576 -0.26425,1.959906 -0.0818,0.84859 -0.0852,1.70166 -0.0934,2.55331 -0.0918,0.91246 -0.63728,1.70187 -1.14569,2.43936 -0.41961,0.6897 -0.96682,1.35017 -1.68809,1.73381 5.89637,-3.49681 3.26123,-1.64737 1.74629,-1.29756 -0.7257,0.18113 -1.34524,-0.10464 -1.95664,-0.47205 -0.22411,-0.16499 -1.16485,-0.70112 -1.0948,-1.00643 1.38859,0.0542 -0.0675,-0.0276 -3.04844,1.97279 -0.0782,0.0525 0.18763,-0.0232 0.2818,-0.0211 0.32457,0.007 0.63938,0.10167 0.94834,0.19057 1.40146,0.54518 -0.6549,0.96349 3.29455,-2.1975 0.049,-0.0392 -0.1229,-0.0263 -0.18253,-0.0458 -0.16642,-0.0543 -0.32747,-0.12402 -0.49223,-0.18325 -0.65355,-0.17558 -1.32308,-0.28184 -1.98475,-0.4267 -0.80481,-0.21632 -1.60574,-0.44726 -2.41157,-0.66027 -0.76112,-0.19087 -1.52857,-0.36359 -2.28538,-0.57053 -0.63308,-0.18089 -1.24311,-0.44233 -1.83146,-0.73648 -0.56701,-0.21728 -1.06253,-0.54179 -1.53218,-0.91949 -0.76477,-0.85058 -1.38432,-1.82858 -1.89615,-2.848883 -0.39409,-0.81435 -0.52812,-1.6951 -0.58047,-2.587606 -0.0269,-0.748752 -0.0112,-1.498137 -0.01,-2.247162 0.003,-0.823664 0.007,-1.647325 0.009,-2.470994 0.002,-0.746085 0.002,-1.492173 0.002,-2.238259 -0.0234,-0.730832 -0.0107,-1.444746 0.11838,-2.163878 0.098,-0.241539 0.104,-0.339067 0.29901,-0.515864 0.0684,-0.06204 0.31129,-0.198898 0.23173,-0.151971 -5.59645,3.300762 -3.84887,2.074161 -2.53863,1.617593 0.11062,-0.03613 0.22124,-0.07227 0.33186,-0.108399 0,0 3.13755,-2.423258 3.13755,-2.423258 v 0 c -0.1135,0.03155 -0.22701,0.0631 -0.34051,0.09465 -1.7964,0.620906 -4.20633,1.244976 -4.68056,3.228102 -0.11182,0.737888 -0.0979,1.477116 -0.0897,2.222108 1.1e-4,0.745546 2.7e-4,1.491089 1.3e-4,2.236631 -5.3e-4,0.822828 -0.001,1.645669 -0.008,2.46847 -0.008,0.758182 -0.0191,1.517317 0.0222,2.274774 0.0757,0.940168 0.24964,1.863636 0.67542,2.715906 0.54663,1.06338 1.1944,2.08194 1.95926,3.00214 0.48221,0.40159 0.97165,0.79258 1.57491,0.99835 0.60664,0.29831 1.22061,0.59558 1.87065,0.78697 0.74618,0.25496 1.54525,0.36811 2.30434,0.58204 0.81255,0.19757 1.61561,0.43378 2.4149,0.67748 0.65186,0.13244 1.29352,0.29144 1.95059,0.39376 0.0602,0.0189 0.68092,0.29553 0.70271,0.28313 4.92516,-2.80201 4.63224,-1.6154 3.245,-2.32286 -1.63143,-0.5266 -4.87124,-0.98287 -4.97953,1.96396 0.18989,0.60251 0.78341,0.94259 1.28139,1.28081 0.62737,0.41886 1.34096,0.82833 2.12088,0.71882 1.90045,-0.2631 3.48719,-1.73372 5.11737,-2.53396 0.65731,-0.51181 1.18345,-1.15753 1.60611,-1.87456 0.52025,-0.81221 1.04021,-1.65446 1.05701,-2.649 0.01,-0.83938 0.0216,-1.68095 0.1216,-2.515443 0.10154,-0.673111 0.30051,-1.340316 0.22728,-2.027365 -0.0716,-0.942549 -0.23179,-1.872945 -0.59451,-2.75241 -0.5285,-1.283271 -1.14525,-2.51647 -1.95408,-3.650205 -0.79305,-0.988369 -1.59762,-2.025218 -2.70065,-2.684073 -0.61199,-0.264266 -1.26054,-0.414287 -1.86595,-0.691163 -0.59829,-0.306724 -1.24645,-0.515435 -1.82454,-0.867725 -1.58058,-0.890368 -4.63383,-0.83539 -4.85765,1.942745 0.19658,0.691058 0.88286,1.069063 1.43786,1.462001 0.56542,0.327422 1.19722,0.572188 1.62531,1.085217 0.56942,0.723247 1.18558,1.441366 1.32846,2.384005 0.10239,1.173144 0.0358,2.357815 0.16711,3.530449 0.14079,1.448451 0.41515,2.869217 0.974,4.221317 0.35247,0.89815 0.83595,1.73585 0.72411,2.73329 0.0143,0.7255 0.0307,1.45898 0.22191,2.16399 0.23259,0.71443 0.59536,1.39541 1.11279,1.94464 0.10991,0.0766 0.20782,0.17419 0.32972,0.22971 0.14938,0.068 0.53959,0.11329 0.69093,0.0316 1.70634,-0.92069 3.10822,-1.46055 4.3228,-2.73445 0.82724,-0.90151 1.5906,-1.85463 2.25158,-2.88675 0.48399,-0.77106 0.88084,-1.58219 1.0445,-2.4863 0.12298,-0.742873 0.19368,-1.480817 0.0877,-2.232729 -0.0822,-0.699013 -0.21618,-1.391229 -0.58615,-2.002658 -0.27574,-0.468058 -0.50176,-0.956881 -0.75805,-1.434933 -0.2172,-0.51694 -0.48731,-1.009123 -0.698,-1.529665 -0.23208,-0.693671 -0.47991,-1.386578 -0.78036,-2.052904 -0.36418,-0.71196 -0.69708,-1.450576 -1.22785,-2.059154 -0.39075,-0.514268 -0.80835,-1.00474 -1.1844,-1.529049 -0.34586,-0.413411 -0.72075,-0.810305 -1.11982,-1.171188 -0.52133,-0.453337 -1.23453,-0.658268 -1.90301,-0.786329 -0.85084,-0.117946 -1.71733,-0.0072 -2.56621,0.09334 -1.89579,0.333897 -4.08388,1.619152 -5.30603,2.803523 -0.36718,0.429072 -0.57048,0.962869 -0.97966,1.360098 -1.14966,0.929119 -0.38293,0.289547 2.93674,-1.600298 0.0921,-0.05244 -0.1847,0.106278 -0.28438,0.14233 -0.29842,0.107926 -0.60961,0.08126 -0.91808,0.126185 -1.99943,1.142805 -4.7883,1.381977 -3.27697,3.398822 0.55527,0.689933 1.27678,1.235281 1.93811,1.819045 0.74672,0.682786 1.50066,1.363313 2.34492,1.925523 0.62128,0.491353 1.28294,0.920107 1.9528,1.338647 0.56257,0.339338 1.10439,0.702233 1.59835,1.137528 0.55143,0.343392 1.0378,0.78305 1.49435,1.242092 0.43129,0.439644 0.69451,0.911454 0.33787,1.484154 -0.94451,1.37994 -3.54218,2.61279 2.18335,-0.76106 -0.56624,0.24485 -1.15213,0.4697 -1.7831,0.44155 -0.69899,-0.004 -1.406,0.002 -2.09225,-0.14951 -0.71331,-0.21138 -1.2415,-0.62993 -1.74952,-1.168394 -0.5991,-0.487016 -1.094,-1.07033 -1.56184,-1.681724 -0.40879,-0.534453 -0.7777,-1.094867 -0.97838,-1.743879 -0.25644,-0.995622 -0.43952,-2.008627 -0.55099,-3.031154 -0.14166,-1.029028 -0.37791,-2.052259 -0.35396,-3.095921 0.015,-0.125566 0.009,-0.255524 0.045,-0.376698 0.0263,-0.08818 0.22079,-0.280411 0.13875,-0.238704 -1.08694,0.552577 -2.12287,1.200306 -3.19015,1.789969 -0.0912,0.05041 0.16379,-0.134908 0.26128,-0.171786 0.31417,-0.118845 0.57194,-0.06162 0.90148,-0.04217 1.51489,0.289192 2.99424,0.712724 4.47767,1.13039 0,0 3.2531,-2.256513 3.2531,-2.256513 z" />
    <path
       style="fill:#ffffff;fill-rule:evenodd;stroke-width:0.264583"
       id="path27606"
       d="m 136.41223,108.66737 c -0.93339,-1.49873 -1.59222,-3.14367 -2.10842,-4.82658 -0.54607,-1.7419 -0.72625,-3.55736 -0.83063,-5.370227 -0.11699,-2.122662 -0.0233,-4.249979 -0.11591,-6.372596 -0.10729,-1.278818 -0.11978,-2.565606 -0.36836,-3.826901 -0.0255,-0.238197 -0.0771,-0.52837 0.19314,-0.646414 0.0668,-0.02918 0.27535,-0.08689 0.21317,-0.04883 -3.00716,1.841 -4.38426,2.205681 -2.9181,1.791875 0.32821,-0.06934 0.66604,-0.04568 0.99639,-0.09682 1.42838,-0.221118 4.27179,-2.390172 4.3081,-2.412093 0.34723,-0.528386 0.67051,-1.09896 0.0637,-1.536554 -2.5085,0.02545 -3.98115,2.019593 -4.99431,3.887226 -0.52949,0.896829 -1.09713,1.758254 -1.76319,2.559503 -0.70192,0.771583 -1.61988,1.33949 -2.49188,1.906632 0.99855,-0.582552 1.9971,-1.165103 2.99565,-1.747655 -0.20774,0.09048 -0.40341,0.226997 -0.64651,0.157081 -0.37467,-0.10776 -0.51018,-0.514551 -0.62062,-0.832594 -0.19449,-0.80999 0.1465,-1.466016 0.81331,-1.913064 -5.57573,3.340044 -3.58841,1.797947 -2.20576,1.553421 0.51306,-0.09074 1.03632,-0.103589 1.5554,-0.123735 0.88556,0.0096 1.76353,-0.0067 2.60573,-0.301651 2.07699,-0.944867 4.07648,-1.389155 4.47776,-3.541382 0.032,-0.682559 -0.4122,-1.110065 -1.08222,-1.035232 -2.35668,0.392363 -3.04175,1.885502 -4.641,2.908244 -0.38984,0.395883 -0.85867,0.702598 -1.2223,1.125929 -0.53605,0.823735 -0.49253,1.359874 -0.23449,2.280423 0.17006,0.524263 0.32157,1.053623 0.46421,1.585846 0,0 3.46733,-1.884831 3.46733,-1.884831 v 0 c -0.14721,-0.528725 -0.30385,-1.05437 -0.46155,-1.580073 -0.17927,-0.782219 -0.13849,-1.319059 0.42976,-1.924918 0.40698,-0.365067 0.81695,-0.729157 1.2527,-1.059635 1.23501,-0.956053 3.55358,-2.683938 -2.16673,1.026835 0.32442,-0.349036 0.73968,-0.270643 0.61849,0.27569 -0.0857,0.28956 -0.16901,0.54995 -0.38394,0.773986 -0.0678,0.07071 -0.31028,0.237067 -0.22433,0.190013 0.94587,-0.517747 4.39846,-2.486049 2.80939,-1.603729 -0.77277,0.439692 -1.65168,0.449461 -2.52261,0.434284 -2.83273,0.06799 -3.16217,0.351943 -6.20903,2.387719 -0.62304,0.658458 -0.85794,1.458804 -0.59871,2.346923 0.22933,0.580631 0.83651,1.685097 1.64956,1.241078 1.27133,-0.69429 2.50627,-1.453239 3.75941,-2.179859 0.86811,-0.601822 1.79129,-1.169162 2.44574,-2.015779 0.64756,-0.82487 1.20312,-1.708549 1.72816,-2.615919 0.20644,-0.353341 0.34395,-0.611458 0.58334,-0.938403 0.0885,-0.120933 0.18182,-0.23894 0.2839,-0.348689 0.094,-0.101042 0.42477,-0.346861 0.30287,-0.282197 -3.11241,1.651013 -3.74056,2.852669 -3.03097,1.58731 0.0149,-0.05281 0.0434,-0.215041 0.0296,-0.161933 -0.091,0.350422 -0.20648,0.651928 -0.51368,0.88252 1.04045,-0.589124 2.07624,-1.18655 3.12135,-1.767366 0.0991,-0.05507 -0.18339,0.134254 -0.28233,0.189595 -0.40547,0.226795 -0.84453,0.205173 -1.29387,0.214524 -1.67176,0.1329 -0.43849,-0.0066 -3.95605,2.051484 -0.12737,0.07452 -0.20791,0.330208 -0.2283,0.455734 -0.0399,0.245496 0.002,0.403217 0.0354,0.650457 0.24885,1.235551 0.26973,2.499296 0.38458,3.751998 0.10773,2.1229 0.0152,4.251327 0.12089,6.375039 0.10988,1.84482 0.3153,3.68657 0.86745,5.45939 0.54745,1.70579 1.22662,3.37039 2.12332,4.92478 0,0 3.41598,-1.97988 3.41598,-1.97988 z" />
    <path
       style="fill:#ffffff;fill-rule:evenodd;stroke-width:0.264583"
       id="path27608"
       d="m 128.89828,88.342548 c 1.07546,0.581954 2.08444,1.273146 3.0618,2.005431 1.17856,0.896442 2.17952,1.989632 3.2164,3.038782 0.48774,0.610158 1.11914,1.067027 1.6951,1.584327 0.69015,0.652286 1.11733,1.537632 1.56592,2.362872 0.54319,1.031806 0.93338,2.12938 1.31814,3.22685 0.17109,0.72792 0.45627,1.42192 0.62272,2.15059 0.12459,0.66241 0.13114,1.33881 0.1404,2.0105 -0.0804,0.73707 -0.37405,1.41919 -0.54014,2.13835 -0.0914,0.39333 -0.1423,0.89432 -0.41719,1.21679 -0.0551,0.0646 -0.26783,0.20752 -0.19471,0.16432 1.0483,-0.61928 2.08207,-1.26285 3.12311,-1.89427 -0.11423,0.006 -0.23109,0.0434 -0.34268,0.0182 -1.21102,-0.27277 -2.23546,-1.79629 -2.90566,-2.71903 -1.17998,-1.89504 -1.93206,-3.998724 -2.57205,-6.124162 -0.57562,-1.861809 -1.27663,-3.671284 -2.06456,-5.452401 -0.28147,-0.729845 -0.62129,-1.453017 -0.75162,-2.231464 -0.0243,-0.145336 -0.0739,-0.301368 -0.0275,-0.441216 0.0188,-0.05667 0.22784,-0.04758 0.1786,-0.01381 -1.05373,0.722813 -2.1407,1.395945 -3.21104,2.093918 1.46882,1.622055 2.15855,3.710297 2.73103,5.777299 0.47772,1.816349 0.69455,3.681996 0.78066,5.553666 0.0333,0.9753 0.0181,1.95125 0.008,2.92679 -0.15149,1.04495 -0.24531,2.09568 -0.3094,3.14919 -0.0265,0.1582 -0.039,0.31939 -0.0795,0.47462 -0.063,0.2417 -0.15499,0.44955 -0.33916,0.62193 -0.0731,0.0684 -0.33657,0.21659 -0.25076,0.16509 3.25742,-1.95529 4.37279,-1.66834 2.91451,-1.96615 -1.35065,-1.38674 -2.05128,-3.29984 -2.83178,-5.04145 -0.75168,-1.70944 -1.38649,-3.467016 -2.02783,-5.219886 -0.40072,-0.81693 -0.70232,-1.674964 -1.0484,-2.5145 -0.4389,-0.969409 -0.93961,-1.901766 -1.35501,-2.884963 -0.17025,-0.484939 -1.05702,-1.594163 -0.32587,-1.959351 -6.37159,4.147447 -3.88427,1.941295 -2.62988,1.726806 0.31277,-0.05348 0.61323,-0.06942 0.9219,-0.149374 0.52626,-0.283114 1.07383,-0.457012 1.6622,-0.548536 0.70298,-0.08263 1.4122,-0.08136 2.11897,-0.0847 0.88547,0.0083 1.77231,-0.02884 2.6563,0.02887 1.065,0.0687 1.99728,0.581252 2.90005,1.108141 0.86184,0.568039 1.8283,1.020111 2.52476,1.797592 0.6036,0.640339 0.98935,1.387517 1.18963,2.237444 0.16415,0.988314 0.15761,1.993752 0.16845,2.992469 0.0209,1.093148 0.0129,2.203398 -0.41082,3.225558 -0.35622,0.69875 -0.9437,1.12786 -1.59906,1.51008 -0.49398,0.31752 -0.90731,0.73227 -1.32511,1.13966 0,0 3.6339,-1.4901 3.6339,-1.4901 v 0 c 0.43938,-0.39076 0.87586,-0.78599 1.38837,-1.08171 0.65889,-0.43152 1.18394,-1.0111 1.48264,-1.74984 0.33424,-1.08565 0.37154,-2.215165 0.34091,-3.34524 -0.002,-1.029374 -0.0125,-2.065252 -0.20044,-3.080895 -0.23188,-0.901041 -0.64332,-1.713984 -1.28279,-2.400364 -0.70761,-0.831347 -1.6987,-1.308729 -2.60696,-1.891196 -0.91862,-0.570397 -1.88921,-1.143339 -2.98348,-1.264389 -0.88546,-0.110746 -1.77983,-0.04366 -2.67077,-0.06621 -0.71484,-4.3e-5 -1.43063,-0.004 -2.14425,0.04414 -0.59886,0.05506 -1.20577,0.128317 -1.72528,0.457811 -1.51844,0.947679 -4.78431,-1.155089 -5.06967,2.438871 -0.34173,0.82047 0.21409,1.595853 0.54876,2.332871 0.415,0.981014 0.91184,1.915268 1.3401,2.888027 0.33985,0.837491 0.64538,1.688933 1.06341,2.493015 0.67304,1.747039 1.33238,3.500539 2.08651,5.214829 0.82603,1.84308 1.577,3.79093 2.91018,5.33718 0.11736,0.0685 0.22723,0.25903 0.35206,0.2054 0.67766,-0.2911 3.54672,-1.04177 4.06383,-2.55148 0.11638,-0.33976 0.12098,-0.55743 0.16383,-0.91811 0.0689,-1.06253 0.19925,-2.11702 0.31251,-3.17506 0.005,-0.97967 0.014,-1.96034 -0.04,-2.93895 -0.12827,-1.887178 -0.38126,-3.766646 -0.88173,-5.594829 -0.60155,-2.147607 -1.32553,-4.273598 -2.76386,-6.023893 -1.26855,0.526827 -2.56824,0.984202 -3.80567,1.580483 -0.0698,0.03365 -0.008,0.503428 0.0469,0.748149 0.17649,0.78762 0.50694,1.528662 0.80635,2.27403 0.78239,1.767168 1.48066,3.560099 2.04313,5.410859 0.67083,2.157551 1.4739,4.284141 2.64714,6.225451 0.9094,1.30503 1.90633,2.66228 3.48086,3.18578 3.11083,-1.80476 3.68341,-1.18816 4.17749,-3.66089 0.19257,-0.73783 0.48529,-1.45755 0.49662,-2.23066 -0.0136,-0.69881 -0.0293,-1.40269 -0.17778,-2.08865 -0.18393,-0.73696 -0.4664,-1.444623 -0.65862,-2.179572 -0.40306,-1.110853 -0.80906,-2.222801 -1.3591,-3.27175 -0.46095,-0.868466 -0.90141,-1.796494 -1.60928,-2.492695 -0.56613,-0.523933 -1.2129,-0.955715 -1.70537,-1.558981 -1.07167,-1.03764 -2.08757,-2.13669 -3.24882,-3.078588 -0.97271,-0.753398 -1.99701,-1.433502 -3.06316,-2.04787 0,0 -3.32711,2.144133 -3.32711,2.144133 z" />
    <path
       style="fill:#ffffff;fill-rule:evenodd;stroke-width:0.264583"
       id="path27610"
       d="m 128.61401,91.742306 c 2.59988,2.145909 4.53286,4.894062 6.43757,7.639762 1.06672,1.617502 2.07003,3.308272 2.4911,5.216272 0.0304,0.29514 0.17954,0.79017 -0.0812,1.04888 -0.0651,0.0646 -0.3253,0.16941 -0.24691,0.12172 3.11216,-1.89376 4.27339,-2.1418 2.77004,-1.77637 -1.40793,-0.18904 -2.35225,-1.58437 -3.14673,-2.63457 -0.50135,-0.76732 -1.01205,-1.532014 -1.43612,-2.34615 -0.093,-0.178509 -0.19835,-0.353825 -0.25719,-0.546306 -0.009,-0.03054 0.0964,-0.08354 0.0703,-0.0651 -1.05117,0.743347 -2.09749,1.493526 -3.14624,2.240286 2.09557,2.39082 3.95081,4.96632 5.581,7.6927 0.21866,0.429 0.46554,0.84475 0.65597,1.28701 0.0265,0.0615 0.47724,1.25429 0.38579,1.55091 -0.0254,0.0825 -0.32387,0.093 -0.25596,0.0396 3.12518,-2.45404 3.894,-1.3316 2.10098,-2.85803 -1.87798,-1.74811 -3.48555,-3.75258 -4.65685,-6.03605 -0.11283,-0.30743 -0.47922,-1.00964 -0.0876,-1.32393 0.0957,-0.0768 0.44705,-0.19368 0.34724,-0.12228 -2.8172,2.01523 -3.90299,1.7934 -1.85956,1.87971 1.08662,0.0518 2.07643,0.56816 3.12723,0.77011 1.67456,0.32185 3.29855,-1.44835 4.30169,-2.34011 0.20622,-0.18332 -0.0519,-0.5494 -0.0779,-0.8241 -0.5099,-2.239361 -1.25848,-4.418509 -1.78323,-6.652738 0.0299,-0.157525 -0.004,-0.342175 0.0896,-0.472575 0.0653,-0.09128 0.41226,-0.166839 0.32104,-0.101463 -0.96619,0.69246 -2.12867,1.140127 -2.95822,1.991514 -0.17706,0.181729 0.46341,0.21178 0.67501,0.351798 0.69458,0.459626 1.12744,0.922446 1.7371,1.497285 0.87855,0.941279 1.88534,1.849485 2.46055,3.026291 0.18936,0.387388 0.23537,0.319618 0.0185,0.422618 1.06929,-0.674774 2.16301,-1.312298 3.20787,-2.024326 0.0619,-0.04219 -0.15157,0.0081 -0.22459,-0.0087 -0.53912,-0.123931 -0.79396,-0.36149 -1.38758,-0.312518 -1.20427,0.747191 -2.47495,1.39668 -3.61281,2.241574 -0.147,0.10914 -0.0915,0.35481 -0.12601,0.53461 -0.19449,1.01204 -0.19945,2.05183 -0.23357,3.07803 -0.0229,0.24439 -0.0308,0.49065 -0.0686,0.73318 -0.0449,0.28807 -0.10769,0.62969 -0.32623,0.85237 -0.055,0.056 -0.27918,0.14278 -0.21189,0.10245 3.3023,-1.97932 4.39579,-1.36338 3.07746,-2.02656 -0.63772,-1.12323 -1.06371,-2.38368 -1.4578,-3.614726 -0.63076,-2.271972 -0.0824,-1.867749 -3.82961,1.001336 -0.10856,0.0831 0.0375,0.27132 0.043,0.40794 0.005,0.12458 -0.008,0.24924 -0.0117,0.37386 1.03921,-0.68527 2.17976,-1.23731 3.11763,-2.0558 0.13615,-0.118811 -0.34028,-0.133689 -0.48538,-0.241392 -0.3229,-0.239697 -0.6204,-0.513205 -0.90878,-0.793499 -1.1241,-1.092592 -2.12014,-2.32492 -3.11957,-3.528806 -0.35507,-0.548098 -2.57013,-2.802507 -1.54308,-3.549597 0.0893,-0.06493 0.20775,-0.07461 0.31163,-0.111919 -1.02991,0.621475 -2.09428,1.189114 -3.08971,1.864423 -0.0922,0.06256 0.22434,-0.01339 0.33426,0.0049 0.1584,0.02633 0.3142,0.07118 0.46444,0.127858 0.90968,0.343159 1.65265,0.89577 2.42391,1.473117 0.99022,0.840576 1.89884,1.778329 2.7391,2.768188 0.3855,0.454144 0.95476,1.023556 1.01365,1.653037 1.00403,-0.749229 2.31171,-1.208987 3.01208,-2.247686 0.23301,-0.345569 -0.63509,-0.540192 -0.94253,-0.821602 -0.44978,-0.4117 -0.89279,-0.830922 -1.32867,-1.257311 -1.32246,-1.293659 -2.5894,-2.638208 -3.82935,-4.010247 -0.25402,-0.301824 -0.52197,-0.592455 -0.76206,-0.905473 -1.0351,-1.349491 0.0851,-2.148983 -3.46876,1.723731 -0.18586,0.202533 0.42765,0.348544 0.61348,0.551103 0.72863,0.794219 1.12096,1.454135 1.73699,2.361502 0.72875,1.260742 1.66709,2.445022 2.22181,3.804229 0.0858,0.210117 -0.0545,0.755378 0.15294,0.663427 3.8828,-1.720805 3.93203,-1.415798 2.55008,-2.498852 -0.25337,-0.295767 -0.51942,-0.58112 -0.7601,-0.887299 -0.52353,-0.45616 -0.71936,-1.136935 -1.12735,-1.670684 -0.0704,-0.0921 -0.17336,-0.275278 -0.27279,-0.215694 -3.76732,2.257568 -3.60242,1.140706 -3.28411,3.485311 0.076,1.347729 0.63773,3.550575 0.12465,4.834225 -0.0765,0.19134 -0.56789,0.5834 -0.38972,0.47987 1.00676,-0.58493 1.93616,-1.29387 2.90424,-1.94081 -1.25595,-0.6773 -2.0517,-2.081555 -2.58616,-3.364667 -0.045,-0.09683 -0.09,-0.193657 -0.13506,-0.290486 0,0 -3.44613,1.968796 -3.44613,1.968796 v 0 c 0.0491,0.08479 0.0982,0.16959 0.14733,0.254383 0.66412,1.438984 1.53545,2.821394 2.83399,3.767534 1.29398,-0.66081 2.64791,-1.21548 3.88193,-1.98244 0.34121,-0.21207 0.39934,-1.378418 0.40547,-1.577806 0.0406,-1.320146 -0.18791,-2.639224 -0.28914,-3.95062 -0.0219,-0.346181 0.27733,-1.090102 -0.0657,-1.03854 -1.23545,0.1857 -2.28179,1.019011 -3.40761,1.560615 -0.0597,0.0287 0.15175,-0.06397 0.19791,-0.01651 0.19856,0.204124 0.31311,0.475822 0.47604,0.709372 0.74003,1.060828 0.65227,0.917562 1.45772,1.926929 1.49599,1.65053 0.89799,1.48914 4.23306,-1.432523 0.18754,-0.164291 -0.13448,-0.482441 -0.23941,-0.708607 -0.27084,-0.583801 -1.0793,-1.909704 -1.38363,-2.402986 -0.2926,-0.47426 -0.59496,-0.942427 -0.89245,-1.413642 -0.62639,-0.964348 -0.99753,-1.600869 -1.70951,-2.472457 -0.18376,-0.224959 -0.31873,-0.719915 -0.59658,-0.635196 -4.72151,1.439691 -4.10616,1.383083 -2.39765,3.302804 1.68112,1.802334 3.40828,3.55676 5.13999,5.310235 0.3078,0.311664 0.48724,1.016781 0.91846,0.939827 1.37663,-0.245668 2.53205,-1.187683 3.79807,-1.781524 -0.23114,-0.700524 -0.7112,-1.226585 -1.19227,-1.780112 -0.866,-0.99645 -1.78302,-1.953572 -2.77176,-2.829068 -0.90122,-0.72159 -1.81701,-1.437796 -2.92681,-1.810234 -0.13472,-0.04521 -0.28068,-0.173625 -0.41035,-0.115509 -1.29409,0.57998 -2.50834,1.323793 -3.76251,1.985687 -0.0772,0.09622 -0.17699,0.178047 -0.2316,0.288664 -0.64484,1.306295 1.23684,2.965045 1.85914,3.885112 1.27297,1.530771 2.53145,3.119659 4.00514,4.466169 0.19476,0.17795 0.36666,0.59527 0.61293,0.50068 1.29918,-0.49898 2.39869,-1.412 3.59803,-2.118001 -0.007,-0.418811 -0.0101,-0.814152 -0.0368,-0.805389 -4.10756,1.34335 -3.75315,0.567375 -3.14065,2.7135 0.4366,1.30608 0.89097,2.63451 1.54957,3.84368 0.0945,0.0849 0.16593,0.30243 0.28358,0.25454 1.23427,-0.50237 3.55837,-0.86684 3.94913,-2.48824 0.10812,-0.44865 0.11306,-0.85459 0.14504,-1.31684 0.0305,-0.80048 0.0456,-1.60982 0.18225,-2.401546 0.034,-0.19712 0.07,-0.395541 0.13488,-0.584758 0.0486,-0.141806 0.33989,-0.462941 0.20328,-0.40118 -1.09869,0.49674 -2.11331,1.161645 -3.16996,1.742474 0.0761,-0.0596 0.13667,-0.1477 0.22817,-0.17864 0.23365,-0.079 0.4678,0.0526 0.66936,0.13529 1.8832,0.77266 0.25927,0.84692 4.22905,-1.771151 -0.13285,-1.308397 -1.97617,-2.826539 -2.77506,-3.763534 -0.21334,-0.209254 -2.17904,-2.143649 -2.46402,-2.065025 -1.39154,0.38391 -2.67314,1.099211 -3.95844,1.756288 -0.12012,0.06141 -0.15693,0.228597 -0.18306,0.360947 -0.0371,0.187862 -0.001,0.382971 -0.002,0.574456 0.58675,2.190062 1.34457,4.34 1.73217,6.580229 -0.12944,1.72973 -0.24997,0.96492 3.07589,-0.93322 0.17302,-0.0988 -0.39046,0.12519 -0.58853,0.10394 -0.98642,-0.10582 -2.14119,-0.79291 -3.16322,-0.83894 -2.34517,-0.27538 -0.97997,-0.28053 -4.99917,1.86217 -0.6693,0.35682 -0.16798,1.48875 0.026,1.91787 1.24227,2.29208 2.89627,4.30758 4.74683,6.13929 1.80892,1.75961 0.71021,1.18765 4.86298,-0.73413 0.10545,-0.0488 0.0815,-0.22482 0.0736,-0.34075 -0.0289,-0.42468 -0.38865,-1.33405 -0.51994,-1.61487 -0.20705,-0.44285 -0.46177,-0.86181 -0.69266,-1.29271 -1.66358,-2.74047 -3.55875,-5.31481 -5.52032,-7.84852 -1.25946,0.544607 -2.54945,1.023426 -3.77837,1.63383 -0.0659,0.0327 0.0325,0.14461 0.0631,0.21154 0.0866,0.18955 0.18658,0.37281 0.28717,0.55531 0.45087,0.81798 0.96495,1.59803 1.47906,2.37699 0.86768,1.18146 1.81738,2.5554 3.29587,2.98241 1.80463,0.27503 0.55272,0.17645 4.09818,-2.07847 0.15374,-0.0978 0.22036,-0.48432 0.22992,-0.63395 0.0216,-0.33859 -0.039,-0.55153 -0.0983,-0.889 -0.4996,-1.93517 -1.55428,-3.642855 -2.67196,-5.282235 -1.95129,-2.743769 -3.89167,-5.511035 -6.38856,-7.798472 0,0 -3.33912,2.097397 -3.33912,2.097397 z" />
    <path
       style="fill:#ffffff;fill-rule:evenodd;stroke-width:0.264583"
       id="path27612"
       d="m 130.28472,94.308474 c 1.63671,2.111205 2.91284,4.464592 4.13318,6.831816 1.04698,1.84501 1.75097,3.82721 2.36077,5.84676 0.27854,0.81072 0.61858,1.60472 1.04501,2.34889 0.28569,0.46917 0.57161,0.99679 1.05392,1.28269 1.15722,-0.73878 2.38838,-1.37285 3.47166,-2.21634 0.12536,-0.0976 -0.009,-0.31764 -0.0134,-0.47646 -0.0346,-1.24478 -0.21586,-2.46641 -0.37327,-3.70066 -0.12181,-1.53003 -0.48209,-3.06924 -0.39573,-4.609779 0.0336,-0.700455 0.51694,-1.220383 0.99709,-1.688044 0.16686,-0.20306 0.22763,-0.304541 0.43972,-0.458743 0.0799,-0.05808 0.34083,-0.199853 0.25565,-0.149833 -5.8414,3.430549 -3.86595,1.939702 -2.56337,1.651399 0.88779,0.166195 1.39033,0.994738 1.70618,1.76962 0.0703,0.29562 0.15348,0.64549 -0.10041,0.88614 -0.0601,0.057 -0.28448,0.16973 -0.21344,0.12715 3.21119,-1.924512 4.23612,-2.395851 2.86945,-1.75302 -0.63487,0.19165 -1.25977,0.22155 -1.86196,-0.06348 -0.74568,-0.487892 -1.45405,-1.029756 -2.16512,-1.566067 -1.32788,-0.998786 -2.87925,-1.582322 -4.43538,-2.117134 -1.83085,-0.617982 -3.74621,-0.901801 -5.66073,-1.104371 -1.98779,-0.103542 -2.43244,0.47735 -4.72061,2.078852 -0.26488,0.185391 0.45592,1.301581 0.52632,1.417413 1.17686,1.660587 2.36941,3.309767 3.56659,4.955737 1.40427,1.81023 2.69854,3.71389 4.22201,5.42879 0.98975,-0.91213 2.22824,-1.61277 2.96925,-2.73638 0.20297,-0.30776 -0.35571,-0.64605 -0.52136,-0.97541 -0.87934,-1.74824 -1.61139,-3.55884 -2.26958,-5.399705 -0.58048,-1.712841 -0.96055,-3.54543 -0.60127,-5.344361 0.0746,-0.114171 0.11419,-0.261419 0.22386,-0.342509 0.0994,-0.07347 0.46316,-0.156935 0.35987,-0.08909 -0.99957,0.656532 -2.1765,1.064559 -3.06454,1.865548 -0.16654,0.15022 0.36706,0.265708 0.51107,0.437645 0.75591,0.902438 1.218,1.872453 1.7964,2.903315 0.85223,1.805277 1.76952,3.590427 2.48074,5.459037 0.11517,0.30257 -0.0146,1.03271 0.29129,0.92653 4.29585,-1.49154 3.85109,-1.51222 2.43815,-2.56914 -3.09891,-3.220289 -5.99462,-6.633274 -8.61793,-10.251218 -0.22333,-0.35433 -0.48263,-0.688395 -0.67,-1.062987 -0.61845,-1.236411 1.38828,-3.696303 -3.02205,1.615133 -0.18566,0.223583 0.52678,0.249822 0.77007,0.408781 0.45696,0.298574 1.57589,1.203859 2.00127,1.541873 2.2538,1.753203 1.88254,1.540163 5.22278,-1.10218 0.0264,-0.02088 -0.0889,-0.768993 -0.1307,-1.05563 -7.9e-4,-0.340741 -0.14977,-0.908029 0.10817,-1.21408 0.0714,-0.08478 0.38217,-0.224925 0.28742,-0.167354 -3.12799,1.900695 -4.15764,1.901296 -2.46983,1.770853 0.23903,0.07926 0.48998,0.128974 0.71709,0.237776 1.60055,0.76676 2.91137,2.204694 4.13913,3.446214 0.59891,0.579308 1.12086,1.218634 1.59612,1.899843 0,0 3.38608,-1.99966 3.38608,-1.99966 v 0 c -0.5051,-0.686562 -1.04749,-1.339464 -1.66427,-1.931149 -1.48213,-1.495144 -3.00951,-3.089904 -4.96662,-3.942783 -0.21247,-0.04583 -0.44033,-0.229151 -0.63742,-0.137491 -1.42185,0.661239 -3.41342,1.064011 -3.96472,2.531983 -0.15817,0.421158 -0.0488,0.912146 -0.0246,1.341215 0.0177,0.170215 0.0489,0.339561 0.0532,0.510641 0.003,0.127645 -0.14904,0.42927 -0.0305,0.381844 1.1559,-0.462407 2.21704,-1.13334 3.32556,-1.700009 -0.093,0.0034 -0.1925,0.04439 -0.27909,0.01024 -0.29406,-0.116014 -1.25252,-0.841179 -1.39004,-0.940503 -0.6674,-0.531061 -1.31767,-1.084051 -1.99772,-1.598827 -0.26677,-0.201941 -0.50389,-0.675735 -0.82288,-0.574789 -4.47546,1.41628 -4.40313,1.40725 -2.81163,3.672671 2.71554,3.568491 5.62546,6.981963 8.57626,10.357233 1.57282,1.69664 1.16642,1.85295 4.29138,-1.36826 0.22821,-0.23524 -0.23898,-0.61051 -0.36861,-0.91154 -0.4445,-1.03218 -1.11314,-2.47342 -1.57653,-3.46278 -0.31412,-0.670687 -0.63376,-1.338781 -0.95065,-2.008171 -0.60523,-1.16136 -0.9888,-2.034821 -1.74595,-3.061595 -0.19617,-0.266025 -0.33982,-0.823918 -0.65963,-0.740383 -1.37831,0.360013 -2.56853,1.235255 -3.82255,1.911125 -0.11616,0.0626 -0.19998,0.178758 -0.2665,0.292719 -0.0798,0.136678 -0.10956,0.296947 -0.16434,0.445421 -0.22714,1.868003 0.13834,3.715194 0.77568,5.474974 0.67379,1.85287 1.41543,3.68079 2.26339,5.46196 0.16069,0.33754 0.13107,1.02605 0.50413,1.00183 1.33181,-0.0865 2.52896,-0.85389 3.79344,-1.28084 -1.68642,-1.53047 -2.82531,-3.58918 -4.27201,-5.32767 -1.1701,-1.648321 -2.32618,-3.306308 -3.47284,-4.971064 -0.094,-0.16279 -0.34333,-0.511148 -0.33738,-0.748535 10e-4,-0.05504 0.14719,-0.158224 0.0985,-0.132607 -5.46186,2.87119 -3.81336,1.630704 -2.17592,1.636604 1.90139,0.162629 3.8066,0.411123 5.62378,1.020411 1.51909,0.502991 3.03648,1.066493 4.33379,2.028441 0.71366,0.56139 1.44092,1.10414 2.17964,1.63182 0.69678,0.42 1.24427,0.45924 2.04296,0.32594 1.268,-0.23846 4.03937,-1.29268 4.15723,-2.799029 0.0266,-0.340241 -0.0433,-0.488654 -0.12856,-0.822595 -0.40158,-0.947515 -0.9974,-1.756831 -1.96016,-2.195719 -1.94048,-0.08439 -3.71517,1.438429 -4.98149,2.846996 -0.48064,0.582117 -0.89418,1.144817 -0.86463,1.940577 0.011,1.55319 0.32363,3.08918 0.48146,4.63059 0.12118,0.99532 0.26823,1.99767 0.2912,3.00194 0.005,0.22348 0.002,0.44746 -0.0131,0.6705 -0.009,0.12927 -0.17574,0.4369 -0.0573,0.38442 1.16164,-0.51459 2.226,-1.22546 3.33901,-1.83819 -0.0148,0.0536 0.011,0.15782 -0.0446,0.16085 -0.0887,0.005 -0.70707,-0.91676 -0.77886,-1.06036 -0.42043,-0.71212 -0.75401,-1.47649 -1.03178,-2.25459 -0.65083,-2.02558 -1.42829,-4.00027 -2.48107,-5.857802 -1.24093,-2.382303 -2.50104,-4.763711 -4.0696,-6.951352 0,0 -3.39284,2.021538 -3.39284,2.021538 z" />
    <path
       style="fill:#ffffff;fill-rule:evenodd;stroke-width:0.264583"
       id="path27614"
       d="m 129.54087,91.235166 c 1.42229,2.909756 2.77727,5.84984 3.97894,8.857654 0.78322,1.91915 1.54883,3.84149 2.17621,5.81742 0.27562,0.93872 0.49058,1.89239 0.67674,2.85234 0.0409,0.21101 0.25311,1.25455 0.22833,1.54492 -0.009,0.10411 -0.1002,0.18338 -0.1503,0.27507 1.03068,-0.70564 2.21737,-1.2252 3.09204,-2.11692 0.16929,-0.1726 -0.35276,-0.33294 -0.50413,-0.52145 -0.2465,-0.30699 -0.4766,-0.62803 -0.68638,-0.96118 -0.85059,-1.35076 -1.51694,-2.81096 -2.18713,-4.25538 -0.74711,-1.69959 -1.40385,-3.440653 -2.21153,-5.113073 -0.36443,-0.706533 -0.71446,-1.420249 -1.06521,-2.133574 -0.21055,-0.428183 -0.15635,-0.224189 -0.21335,-0.508611 -1.03044,0.753621 -2.19307,1.353717 -3.09131,2.260859 -0.14213,0.143539 0.28544,0.286081 0.42177,0.435145 0.27237,0.297836 0.5418,0.5985 0.80407,0.905274 1.00989,1.181254 1.97596,2.40073 2.93787,3.62094 0.74139,1.00771 1.47424,2.01933 2.16811,3.0602 0,0 3.36023,-1.97502 3.36023,-1.97502 v 0 c -0.72699,-1.0302 -1.48636,-2.03552 -2.22878,-3.05469 -0.96731,-1.219961 -1.94299,-2.433099 -2.91484,-3.649441 -0.25303,-0.316683 -0.50414,-0.634947 -0.76198,-0.947727 -0.14338,-0.173924 -0.22573,-0.577379 -0.4415,-0.512181 -1.32187,0.399434 -2.495,1.184307 -3.7425,1.776463 0.38996,0.913283 0.93816,1.75959 1.34851,2.664418 0.81713,1.661528 1.51161,3.382458 2.28748,5.063238 0.85975,1.81608 1.67855,3.71664 2.86217,5.35199 0.16882,0.23325 0.26922,0.73715 0.54855,0.66727 1.35345,-0.33857 2.53315,-1.17001 3.79972,-1.75502 0.0807,-0.67679 -0.0903,-1.29431 -0.22568,-1.95906 -0.19792,-0.97172 -0.39296,-1.94558 -0.68471,-2.89481 -0.62474,-1.98614 -1.43706,-3.89459 -2.2525,-5.809598 -1.22774,-3.007265 -2.61767,-5.940465 -3.91143,-8.919115 0,0 -3.41748,1.933649 -3.41748,1.933649 z" />
    <path
       style="fill:none;stroke:#000000;stroke-width:0.264583px;stroke-linecap:butt;stroke-linejoin:miter;stroke-opacity:1"
       d="m 144.44702,102.74231 c 0.0296,3.32911 0.0296,3.32911 0.0296,3.32911 v 0 c 3.7206,-0.29016 3.7206,-0.29016 3.7206,-0.29016 v 0"
       id="path27816" />
    <path
       style="fill:#ffffff;fill-rule:evenodd;stroke-width:0.264583"
       id="path27851"
       d="m 131.55857,96.389898 c 0.44548,0.379849 0.75479,0.880668 1.0379,1.385538 0.26462,0.45802 0.43865,0.959115 0.66344,1.436121 0.15532,0.3296 0.27845,0.553702 0.44974,0.878443 0.2204,0.49336 0.52374,0.9384 0.8175,1.38884 0.29334,0.44978 0.58272,0.90172 0.87984,1.34908 0.40472,0.62377 0.84618,1.22314 1.31396,1.80095 1.29086,1.55731 0.605,0.5866 4.06938,-1.28154 0.003,-0.0634 -0.006,-0.12836 0.008,-0.19021 0.0174,-0.0757 0.056,-0.14483 0.0856,-0.2166 0.0419,-0.10165 0.0851,-0.20279 0.12904,-0.30361 0.12263,-0.28144 0.20253,-0.46457 0.35272,-0.73798 0.0743,-0.1352 0.15672,-0.26575 0.23508,-0.39863 0.30577,-0.48696 0.62885,-0.97253 1.05588,-1.36358 0.0865,-0.0792 0.17517,-0.15708 0.27269,-0.222149 0.0981,-0.06542 0.20761,-0.111702 0.31141,-0.16755 -6.17613,3.605389 -3.63124,2.020789 -2.62834,1.562969 0.24562,-0.11212 0.50026,-0.21061 0.7534,-0.30458 1.3473,-0.47274 0.36344,-0.12007 3.5315,-2.064908 0.0274,-0.0168 0.023,-0.06067 0.0266,-0.09258 0.0136,-0.122351 -0.0458,-0.225134 -0.10164,-0.327631 -0.11555,-0.174966 -0.24199,-0.232825 -0.44421,-0.267477 0,0 -3.21136,2.282876 -3.21136,2.282876 v 0 c 0.0417,8e-4 0.18852,0.0147 0.20283,-0.0465 -0.024,-0.0374 -0.041,-0.0733 -0.0901,-0.0782 -0.0157,-0.002 -0.0608,0.0103 -0.0472,0.002 3.44332,-2.033289 4.2746,-2.72033 3.1994,-1.842326 -0.18085,0.09672 -0.37014,0.174776 -0.55829,0.256553 -1.50141,0.652579 -2.6386,0.979824 -4.16545,2.297653 -0.0987,0.0762 -0.2028,0.14569 -0.29596,0.22849 -0.51684,0.45934 -0.84948,1.09045 -1.21846,1.66294 -0.21502,0.37714 -0.26149,0.45037 -0.46124,0.83327 -0.25825,0.49505 -0.0952,0.21408 -0.35567,0.67967 -0.0472,0.0843 -0.0841,0.17606 -0.14517,0.25092 -0.0275,0.0336 -0.0752,0.0434 -0.11286,0.0652 1.14422,-0.60641 2.28346,-1.22231 3.43266,-1.81923 0.0181,-0.009 -0.0112,0.0547 -0.0315,0.0526 -0.0371,-0.004 -0.0621,-0.0414 -0.091,-0.065 -0.1444,-0.11781 -0.27779,-0.25042 -0.41264,-0.37864 -0.21401,-0.21744 -0.42857,-0.43427 -0.62548,-0.6677 -0.27706,-0.32844 -0.52542,-0.67949 -0.78357,-1.02256 -0.14981,-0.20714 -0.46003,-0.63242 -0.59933,-0.84027 -0.3974,-0.592898 -0.75411,-1.212221 -1.0746,-1.849795 -0.0714,-0.151657 -0.14551,-0.30207 -0.21421,-0.45497 -0.28573,-0.635918 -0.51678,-1.296286 -0.83112,-1.919655 -0.17551,-0.311624 -0.35151,-0.623089 -0.54643,-0.923192 -0.0539,-0.08297 -0.2448,-0.354579 -0.30532,-0.450157 -0.033,-0.05216 -0.0621,-0.106725 -0.0931,-0.160089 0,0 -3.38403,2.042877 -3.38403,2.042877 z" />
    <path
       style="fill:#ffffff;fill-rule:evenodd;stroke-width:0.264583"
       id="path27853"
       d="m 126.16042,88.890569 c 0.091,1.447954 0.275,2.888512 0.42937,4.330684 0.12458,1.113065 0.23949,2.236904 0.51296,3.326096 0.0375,0.149251 0.0837,0.29618 0.12548,0.44427 0.16871,0.61382 0.47444,1.171442 0.75608,1.737529 0.15521,0.311983 0.30711,0.625607 0.4608,0.938342 0.26055,0.54454 0.44896,1.11598 0.62619,1.69129 0,0 3.3804,-1.888569 3.3804,-1.888569 v 0 c -0.27288,-0.537612 -0.52059,-1.087852 -0.79267,-1.625946 -0.21953,-0.46767 -0.46015,-0.928672 -0.66704,-1.402027 -0.0649,-0.148508 -0.11957,-0.301292 -0.18056,-0.451454 -0.237,-0.583546 -0.0904,-0.18728 -0.30162,-0.79439 -0.37798,-1.170506 -0.70414,-2.359853 -0.85027,-3.584736 -0.17413,-1.359723 -0.3537,-2.790058 -0.0409,-4.144637 0.0225,-0.09749 0.0618,-0.190307 0.0927,-0.285462 0,0 -3.55098,1.70901 -3.55098,1.70901 z" />
    <circle
       style="fill:#000000;fill-rule:evenodd;stroke-width:0.264583"
       id="path27903"
       cx="109.88708"
       cy="78.657028"
       r="0.9375478" />
    <path
       style="fill:none;stroke:#000000;stroke-width:0.264583px;stroke-linecap:butt;stroke-linejoin:miter;stroke-opacity:1"
       d="m 109.3633,50.475369 c -1.38365,1.380725 -1.12502,1.251408 -1.12502,1.251408"
       id="path27951" />
    <path
       style="fill:none;stroke:#000000;stroke-width:0.264583px;stroke-linecap:butt;stroke-linejoin:miter;stroke-opacity:1"
       d="m 109.3633,50.475369 c 1.26734,1.316066 1.26734,1.316066 1.26734,1.316066"
       id="path27953" />
    <path
       style="fill:none;stroke:#000000;stroke-width:0.264583px;stroke-linecap:butt;stroke-linejoin:miter;stroke-opacity:1"
       d="m 109.9194,182.66018 c 0.90695,0.95312 0.90695,0.95312 0.90695,0.95312"
       id="path27955" />
    <path
       style="fill:none;stroke:#000000;stroke-width:0.264583px;stroke-linecap:butt;stroke-linejoin:miter;stroke-opacity:1"
       d="m 110.82635,183.6133 v 0"
       id="path27957" />
    <path
       style="fill:none;stroke:#000000;stroke-width:0.264583px;stroke-linecap:butt;stroke-linejoin:miter;stroke-opacity:1"
       d="m 110.82635,183.6133 c 1.0328,-0.95312 1.0328,-0.95312 1.0328,-0.95312 v 0"
       id="path27959" />
    <text
       xml:space="preserve"
       style="font-size:6.35px;line-height:1.25;font-family:sans-serif;stroke-width:0.264583"
       x="110.85044"
       y="51.509907"
       id="text29767"><tspan
         id="tspan29765"
         style="stroke-width:0.264583"
         x="110.85044"
         y="51.509907"
         sodipodi:role="line">y</tspan><tspan
         style="stroke-width:0.264583"
         x="110.85044"
         y="59.447407"
         id="tspan31785"
         sodipodi:role="line" /></text>
    <path
       style="fill:none;stroke:#000000;stroke-width:0.264583px;stroke-linecap:butt;stroke-linejoin:miter;stroke-opacity:1"
       d="m 184.59993,113.15232 h -0.25863 v 0 c 0,0 0.0647,-0.0647 1.46658,1.33167 -1.20794,1.44865 -1.20794,1.44865 -1.20794,1.44865"
       id="path35608" />
    <text
       xml:space="preserve"
       style="font-size:6.35px;line-height:1.25;font-family:sans-serif;stroke-width:0.264583"
       x="187.03639"
       y="116.35909"
       id="text39192"><tspan
         sodipodi:role="line"
         id="tspan39190"
         style="stroke-width:0.264583"
         x="187.03639"
         y="116.35909">z</tspan></text>
    <path
       style="fill:none;stroke:#000000;stroke-width:0.264583px;stroke-linecap:butt;stroke-linejoin:miter;stroke-opacity:1"
       d="m 50.69224,113.21698 c 0,0 0,0 -2.04569,1.63277 2.045691,1.66482 2.045691,1.66482 2.045691,1.66482"
       id="path40993"
       inkscape:export-filename="C:\Users\Hp\OneDrive\Desktop\PhD\IIT Delhi\I-Semester\PYL 800\Assignment 2\Graph.png"
       inkscape:export-xdpi="96"
       inkscape:export-ydpi="96" />
  </g>
</svg>
